<svg width="80" height="80" viewBox="0 0 80 80" fill="none" xmlns="http://www.w3.org/2000/svg">
<path d="M37.5 3.75C35 3.75 30 6.25 27.5 8.75C27.5 10.7812 27.5 12.8125 28.841 14.8438H51.1591C52.5 12.8125 52.5 10.7812 52.5 8.75C50 6.25 45 3.75 42.5 3.75H37.5ZM30.6138 17.6562C32.1775 21.7677 32.2855 26.9381 30.9394 29.8438H49.0607C47.7146 26.9381 47.8225 21.7677 49.3863 17.6562H30.6138ZM28.0402 32.6562C22.2743 37.0927 18.3418 42.9073 17.6208 47.3438H62.3792C61.6583 42.9073 57.7258 37.0927 51.9599 32.6562H28.0402ZM17.5858 50.1562C18.4288 57.1688 25.3128 63.9062 30 66.25C31.3227 67.5727 31.9422 68.8913 32.2355 69.8438H47.7646C48.058 68.8913 48.6774 67.5727 50 66.25C54.6872 63.9062 61.5713 57.1688 62.4142 50.1562H17.5858ZM30.7272 72.6562C28.9403 73.7489 27.5 73.75 27.5 73.75C25 73.75 25 76.25 27.5 76.25H52.5C55 76.25 55 73.75 52.5 73.75C52.5 73.75 51.0597 73.7489 49.2728 72.6562H30.7272Z" fill="black"/>
</svg>
