<svg width="81" height="68" viewBox="0 0 81 68" fill="none" xmlns="http://www.w3.org/2000/svg">
<g clip-path="url(#clip0_72_797)">
<path d="M10.125 6.375C10.125 4.68425 10.765 3.06274 11.9043 1.86719C13.0436 0.67165 14.5888 0 16.2 0C17.8111 0 19.3563 0.67165 20.4956 1.86719C21.6349 3.06274 22.275 4.68425 22.275 6.375C22.275 8.06575 21.6349 9.68726 20.4956 10.8828C19.3563 12.0784 17.8111 12.75 16.2 12.75C14.5888 12.75 13.0436 12.0784 11.9043 10.8828C10.765 9.68726 10.125 8.06575 10.125 6.375ZM15.1875 46.75V63.75C15.1875 66.1008 13.3776 68 11.1375 68C8.8973 68 7.08745 66.1008 7.08745 63.75V43.1906C6.0623 44.4125 4.41698 44.9438 2.84761 44.4391C0.708703 43.7352 -0.480984 41.3578 0.189797 39.1133L4.10058 25.9516C5.68261 20.6258 10.3781 17 15.6937 17H16.7062C22.0218 17 26.7173 20.6258 28.2993 25.9516L32.2101 39.1133C32.8809 41.3578 31.6912 43.7352 29.5523 44.4391C27.9829 44.957 26.3376 44.4125 25.3125 43.1906V63.75C25.3125 66.1008 23.5026 68 21.2625 68C19.0223 68 17.2125 66.1008 17.2125 63.75V46.75H15.1875ZM40.5 0C42.1832 0 43.5375 1.42109 43.5375 3.1875V64.8125C43.5375 66.5789 42.1832 68 40.5 68C38.8167 68 37.4625 66.5789 37.4625 64.8125V3.1875C37.4625 1.42109 38.8167 0 40.5 0ZM58.7249 6.375C58.7249 4.68425 59.365 3.06274 60.5043 1.86719C61.6436 0.67165 63.1888 0 64.7999 0C66.4111 0 67.9563 0.67165 69.0956 1.86719C70.2349 3.06274 70.8749 4.68425 70.8749 6.375C70.8749 8.06575 70.2349 9.68726 69.0956 10.8828C67.9563 12.0784 66.4111 12.75 64.7999 12.75C63.1888 12.75 61.6436 12.0784 60.5043 10.8828C59.365 9.68726 58.7249 8.06575 58.7249 6.375ZM55.6875 63.75V51H53.4346C52.0551 51 51.0806 49.5789 51.5109 48.1977L52.65 44.625C52.2449 44.625 51.84 44.5586 51.4476 44.4258C49.3087 43.7219 48.119 41.3445 48.7898 39.1L52.5487 26.4562C54.2193 20.8383 59.1806 17 64.7999 17C70.4193 17 75.3806 20.8383 77.0512 26.4562L80.8101 39.1C81.4809 41.3445 80.2912 43.7219 78.1523 44.4258C77.7473 44.5586 77.3423 44.625 76.9499 44.625L78.089 48.1977C78.532 49.5789 77.5448 51 76.1653 51H73.9124V63.75C73.9124 66.1008 72.1026 68 69.8624 68C67.6223 68 65.8124 66.1008 65.8124 63.75V51H63.7874V63.75C63.7874 66.1008 61.9776 68 59.7374 68C57.4973 68 55.6875 66.1008 55.6875 63.75Z" fill="black"/>
</g>
<defs>
<clipPath id="clip0_72_797">
<rect width="81" height="68" fill="white"/>
</clipPath>
</defs>
</svg>
