<svg width="40" height="40" viewBox="0 0 40 40" fill="none" xmlns="http://www.w3.org/2000/svg">
<path d="M37.5 19.9998C37.501 20.4242 37.3922 20.8417 37.1841 21.2116C36.976 21.5815 36.6758 21.8913 36.3125 22.1107L13.8 35.8826C13.4204 36.115 12.9857 36.2419 12.5407 36.2502C12.0958 36.2584 11.6566 36.1477 11.2688 35.9295C10.8845 35.7147 10.5645 35.4014 10.3415 35.0219C10.1185 34.6424 10.0006 34.2103 10 33.7701V6.22949C10.0006 5.78931 10.1185 5.35725 10.3415 4.97773C10.5645 4.59821 10.8845 4.28493 11.2688 4.07012C11.6566 3.85191 12.0958 3.74121 12.5407 3.74945C12.9857 3.75769 13.4204 3.88457 13.8 4.11699L36.3125 17.8889C36.6758 18.1084 36.976 18.4181 37.1841 18.788C37.3922 19.1579 37.501 19.5754 37.5 19.9998Z" fill="#FEFAE0"/>
</svg>
