<svg width="40" height="40" viewBox="0 0 40 40" fill="none" xmlns="http://www.w3.org/2000/svg">
<path d="M20.0001 6.6665C21.7682 6.6665 23.4639 7.36888 24.7141 8.61913C25.9644 9.86937 26.6667 11.5651 26.6667 13.3332C26.6667 15.1013 25.9644 16.797 24.7141 18.0472C23.4639 19.2975 21.7682 19.9998 20.0001 19.9998C18.232 19.9998 16.5363 19.2975 15.286 18.0472C14.0358 16.797 13.3334 15.1013 13.3334 13.3332C13.3334 11.5651 14.0358 9.86937 15.286 8.61913C16.5363 7.36888 18.232 6.6665 20.0001 6.6665ZM20.0001 23.3332C27.3667 23.3332 33.3334 26.3165 33.3334 29.9998V33.3332H6.66675V29.9998C6.66675 26.3165 12.6334 23.3332 20.0001 23.3332Z" fill="#FEFAE0"/>
</svg>
