<svg width="80" height="80" viewBox="0 0 80 80" fill="none" xmlns="http://www.w3.org/2000/svg">
<g clip-path="url(#clip0_72_806)">
<path d="M53.3333 17.4533V56.6666H59.1667C61.4667 56.6666 63.3333 58.5333 63.3333 60.8333V66.6666H66.6667C67.5507 66.6666 68.3986 67.0178 69.0237 67.6429C69.6488 68.2681 70 69.1159 70 70C70 70.884 69.6488 71.7319 69.0237 72.357C68.3986 72.9821 67.5507 73.3333 66.6667 73.3333H13.3333C12.4493 73.3333 11.6014 72.9821 10.9763 72.357C10.3512 71.7319 10 70.884 10 70C10 69.1159 10.3512 68.2681 10.9763 67.6429C11.6014 67.0178 12.4493 66.6666 13.3333 66.6666H16.6667V60.8333C16.6667 58.5333 18.5333 56.6666 20.8333 56.6666H26.6667V17.4533L23.7067 11.5333C23.4658 11.0517 23.3439 10.5194 23.3514 9.98094C23.3588 9.44252 23.4952 8.91373 23.7493 8.43895C24.0033 7.96417 24.3675 7.55725 24.8114 7.25235C25.2552 6.94744 25.7657 6.75345 26.3 6.68664L39.4833 5.03997C39.8264 4.99709 40.1736 4.99709 40.5167 5.03997L53.7 6.68664C56.0067 6.9733 57.3333 9.4533 56.2933 11.5333L53.3333 17.4533Z" fill="black"/>
</g>
<defs>
<clipPath id="clip0_72_806">
<rect width="80" height="80" fill="white"/>
</clipPath>
</defs>
</svg>
