<svg width="80" height="80" viewBox="0 0 80 80" fill="none" xmlns="http://www.w3.org/2000/svg">
<path d="M40 73.3334C35.6226 73.3334 31.288 72.4712 27.2438 70.7961C23.1997 69.1209 19.525 66.6656 16.4297 63.5703C10.1785 57.3191 6.66663 48.8406 6.66663 40.0001C6.66663 31.1595 10.1785 22.6811 16.4297 16.4299C22.6809 10.1786 31.1594 6.66675 40 6.66675C58.3333 6.66675 73.3333 20.0001 73.3333 36.6667C73.3333 41.9711 71.2262 47.0582 67.4754 50.8089C63.7247 54.5596 58.6376 56.6668 53.3333 56.6668H47.3333C46.3333 56.6668 45.6666 57.3334 45.6666 58.3334C45.6666 58.6668 46 59.0001 46 59.3334C47.3333 61.0001 48 63.0001 48 65.0001C48.3333 69.6668 44.6666 73.3334 40 73.3334ZM40 13.3334C32.9275 13.3334 26.1448 16.1429 21.1438 21.1439C16.1428 26.1449 13.3333 32.9276 13.3333 40.0001C13.3333 47.0725 16.1428 53.8553 21.1438 58.8563C26.1448 63.8572 32.9275 66.6668 40 66.6668C41 66.6668 41.6666 66.0001 41.6666 65.0001C41.6666 64.3334 41.3333 64.0001 41.3333 63.6668C40 62.0001 39.3333 60.3334 39.3333 58.3334C39.3333 53.6668 43 50.0001 47.6666 50.0001H53.3333C56.8695 50.0001 60.2609 48.5953 62.7614 46.0948C65.2619 43.5944 66.6666 40.203 66.6666 36.6667C66.6666 23.6667 54.6666 13.3334 40 13.3334ZM21.6666 33.3334C24.3333 33.3334 26.6666 35.6667 26.6666 38.3334C26.6666 41.0001 24.3333 43.3334 21.6666 43.3334C19 43.3334 16.6666 41.0001 16.6666 38.3334C16.6666 35.6667 19 33.3334 21.6666 33.3334ZM31.6666 20.0001C34.3333 20.0001 36.6666 22.3334 36.6666 25.0001C36.6666 27.6667 34.3333 30.0001 31.6666 30.0001C29 30.0001 26.6666 27.6667 26.6666 25.0001C26.6666 22.3334 29 20.0001 31.6666 20.0001ZM48.3333 20.0001C51 20.0001 53.3333 22.3334 53.3333 25.0001C53.3333 27.6667 51 30.0001 48.3333 30.0001C45.6666 30.0001 43.3333 27.6667 43.3333 25.0001C43.3333 22.3334 45.6666 20.0001 48.3333 20.0001ZM58.3333 33.3334C61 33.3334 63.3333 35.6667 63.3333 38.3334C63.3333 41.0001 61 43.3334 58.3333 43.3334C55.6666 43.3334 53.3333 41.0001 53.3333 38.3334C53.3333 35.6667 55.6666 33.3334 58.3333 33.3334Z" fill="black"/>
</svg>
