<svg width="80" height="80" viewBox="0 0 80 80" fill="none" xmlns="http://www.w3.org/2000/svg">
<path d="M23.3333 60H33.3333V46.6667H36.6667V38.3333C36.6667 36.5 36.0144 34.9311 34.71 33.6267C33.4056 32.3222 31.8356 31.6689 30 31.6667H26.6667C24.8333 31.6667 23.2644 32.32 21.96 33.6267C20.6556 34.9333 20.0022 36.5022 20 38.3333V46.6667H23.3333V60ZM28.3333 28.3333C29.5 28.3333 30.4867 27.93 31.2933 27.1233C32.1 26.3167 32.5022 25.3311 32.5 24.1667C32.5 23 32.0967 22.0133 31.29 21.2067C30.4833 20.4 29.4978 19.9978 28.3333 20C27.1667 20 26.18 20.4033 25.3733 21.21C24.5667 22.0167 24.1644 23.0022 24.1667 24.1667C24.1667 25.3333 24.57 26.32 25.3767 27.1267C26.1833 27.9333 27.1689 28.3356 28.3333 28.3333ZM43.3333 36.6667H60L51.6667 23.3333L43.3333 36.6667ZM51.6667 56.6667L60 43.3333H43.3333L51.6667 56.6667ZM16.6667 70C14.8333 70 13.2644 69.3478 11.96 68.0433C10.6556 66.7389 10.0022 65.1689 10 63.3333V16.6667C10 14.8333 10.6533 13.2644 11.96 11.96C13.2667 10.6556 14.8356 10.0022 16.6667 10H63.3333C65.1667 10 66.7367 10.6533 68.0433 11.96C69.35 13.2667 70.0022 14.8356 70 16.6667V63.3333C70 65.1667 69.3478 66.7367 68.0433 68.0433C66.7389 69.35 65.1689 70.0022 63.3333 70H16.6667ZM16.6667 63.3333H63.3333V16.6667H16.6667V63.3333Z" fill="black"/>
</svg>
