<svg width="15" height="15" viewBox="0 0 15 15" fill="none" xmlns="http://www.w3.org/2000/svg">
<path d="M6.554 9.639C6.46292 9.7333 6.41252 9.8596 6.41366 9.9907C6.4148 10.1218 6.46739 10.2472 6.56009 10.3399C6.65279 10.4326 6.7782 10.4852 6.9093 10.4863C7.0404 10.4875 7.1667 10.4371 7.261 10.346L9.928 7.669C9.95128 7.64578 9.96975 7.61819 9.98236 7.58782C9.99496 7.55744 10.0014 7.52488 10.0014 7.492C10.0014 7.45912 9.99496 7.42656 9.98236 7.39618C9.96975 7.36581 9.95128 7.33822 9.928 7.315L7.261 4.639C7.1667 4.54792 7.0404 4.49752 6.9093 4.49866C6.7782 4.4998 6.65279 4.55239 6.56009 4.64509C6.46739 4.73779 6.4148 4.8632 6.41366 4.9943C6.41252 5.1254 6.46292 5.2517 6.554 5.346L8.2 7H1.5C1.36739 7 1.24021 7.05268 1.14645 7.14645C1.05268 7.24021 1 7.36739 1 7.5C1 7.63261 1.05268 7.75979 1.14645 7.85355C1.24021 7.94732 1.36739 8 1.5 8H8.2L6.554 9.639ZM12 1H5.5C5.36739 1 5.24021 1.05268 5.14645 1.14645C5.05268 1.24021 5 1.36739 5 1.5C5 1.63261 5.05268 1.75979 5.14645 1.85355C5.24021 1.94732 5.36739 2 5.5 2H11.5C11.6326 2 11.7598 2.05268 11.8536 2.14645C11.9473 2.24021 12 2.36739 12 2.5V12.5C12 12.6326 11.9473 12.7598 11.8536 12.8536C11.7598 12.9473 11.6326 13 11.5 13H5.25C5.11739 13 4.99021 13.0527 4.89645 13.1464C4.80268 13.2402 4.75 13.3674 4.75 13.5C4.75 13.6326 4.80268 13.7598 4.89645 13.8536C4.99021 13.9473 5.11739 14 5.25 14H12C12.2652 14 12.5196 13.8946 12.7071 13.7071C12.8946 13.5196 13 13.2652 13 13V2C13 1.73478 12.8946 1.48043 12.7071 1.29289C12.5196 1.10536 12.2652 1 12 1Z" fill="black"/>
</svg>
